<?xml version="1.0" standalone="no"?>
<!DOCTYPE svg PUBLIC "-//W3C//DTD SVG 20010904//EN"
 "http://www.w3.org/TR/2001/REC-SVG-20010904/DTD/svg10.dtd">
<svg version="1.0" xmlns="http://www.w3.org/2000/svg"
 width="600.000000pt" height="600.000000pt" viewBox="0 0 600.000000 600.000000"
 preserveAspectRatio="xMidYMid meet">
<metadata>
Created by potrace 1.11, written by Peter Selinger 2001-2013
</metadata>
<g transform="translate(0.000000,600.000000) scale(0.100000,-0.100000)"
fill="#000000" stroke="none">
<path d="M2760 5993 c-410 -41 -766 -140 -1095 -305 -446 -224 -822 -546
-1121 -963 -125 -173 -270 -448 -353 -666 -73 -194 -147 -488 -166 -664 -4
-33 -10 -91 -15 -130 -9 -72 -5 -537 4 -590 3 -16 12 -75 21 -130 77 -518 299
-1020 632 -1432 89 -111 284 -312 389 -400 122 -103 315 -240 439 -311 72 -41
319 -162 375 -183 277 -106 469 -157 740 -196 193 -27 614 -25 815 6 542 81
1033 295 1460 636 124 99 345 319 446 445 83 103 208 282 259 370 59 103 179
355 218 460 67 176 137 441 158 595 24 182 31 283 31 455 0 268 -17 437 -68
665 -152 674 -522 1262 -1069 1700 -202 162 -509 338 -760 437 -225 89 -502
161 -710 183 -36 4 -74 9 -85 12 -25 6 -496 11 -545 6z"/>
</g>
</svg>
